<?xml version="1.0" encoding="iso-8859-1"?>
<!-- Generator: Adobe Illustrator 19.0.0, SVG Export Plug-In . SVG Version: 6.00 Build 0)  -->
<svg version="1.1" id="Capa_1" xmlns="http://www.w3.org/2000/svg" xmlns:xlink="http://www.w3.org/1999/xlink" x="0px" y="0px"
	 viewBox="0 0 512 512" style="enable-background:new 0 0 512 512;" xml:space="preserve">
<g>
	<g>
		<path d="M482,391H30c-16.569,0-30,13.431-30,30c0,16.569,13.431,30,30,30h30v46c0,8.291,6.709,15,15,15h61c8.291,0,15-6.709,15-15
			v-46h211v46c0,8.291,6.709,15,15,15h60c8.291,0,15-6.709,15-15v-46h30c16.569,0,30-13.431,30-30C512,404.431,498.569,391,482,391z
			"/>
	</g>
</g>
<g>
	<g>
		<path d="M121,0H61C44.431,0,31,13.431,31,30v30h120V30C151,13.431,137.569,0,121,0z"/>
	</g>
</g>
<g>
	<g>
		<path d="M31,331c0,16.569,13.431,30,30,30h60c16.569,0,30-13.431,30-30H31z"/>
	</g>
</g>
<g>
	<g>
		<rect x="31" y="90" width="120" height="61"/>
	</g>
</g>
<g>
	<g>
		<path d="M31,181v120h120V181H31z M106,256c0,8.291-6.709,15-15,15s-15-6.709-15-15v-30c0-8.291,6.709-15,15-15s15,6.709,15,15V256
			z"/>
	</g>
</g>
<g>
	<g>
		<path d="M271,0h-60c-16.569,0-30,13.431-30,30v30h120V30C301,13.431,287.569,0,271,0z"/>
	</g>
</g>
<g>
	<g>
		<path d="M181,331c0,16.569,13.431,30,30,30h60c16.569,0,30-13.431,30-30H181z"/>
	</g>
</g>
<g>
	<g>
		<rect x="181" y="90" width="120" height="61"/>
	</g>
</g>
<g>
	<g>
		<path d="M181,181v120h120V181H181z M256,256c0,8.291-6.709,15-15,15s-15-6.709-15-15v-30c0-8.291,6.709-15,15-15s15,6.709,15,15
			V256z"/>
	</g>
</g>
<g>
	<g>
		<path d="M419.638,25.075C416.761,8.756,401.201-2.139,384.884,0.74l-59.088,10.419c-16.318,2.877-27.213,18.435-24.335,34.753
			l5.209,29.544l118.177-20.837L419.638,25.075z"/>
	</g>
</g>
<g>
	<g>
		<path d="M471.733,315.367l-118.178,20.837c2.878,16.318,18.437,27.213,34.753,24.335l59.09-10.419
			C463.715,347.243,474.609,331.685,471.733,315.367z"/>
	</g>
</g>
<g>
	<g>
		<polygon points="430.056,84.163 311.88,105 322.299,158.939 440.475,138.102 		"/>
	</g>
</g>
<g>
	<g>
		<path d="M445.685,167.647l-118.176,20.837l20.837,118.176l118.178-20.837L445.685,167.647z M402.225,266.697
			c-8.164,1.439-15.938-4.003-17.377-12.167l-5.209-29.544c-1.44-8.165,4.002-15.938,12.167-17.377
			c8.165-1.439,15.938,4.003,17.377,12.167l5.209,29.544C415.833,257.485,410.389,265.258,402.225,266.697z"/>
	</g>
</g>
<g>
</g>
<g>
</g>
<g>
</g>
<g>
</g>
<g>
</g>
<g>
</g>
<g>
</g>
<g>
</g>
<g>
</g>
<g>
</g>
<g>
</g>
<g>
</g>
<g>
</g>
<g>
</g>
<g>
</g>
</svg>
